{"accessors" : [{"bufferView" : 0, "byteOffset" : 0, "componentType" : 5123, "count" : 12636, "type" : "SCALAR", "max" : [10615], "min" : [0]}, {"bufferView" : 1, "byteOffset" : 0, "componentType" : 5126, "count" : 10616, "type" : "VEC3", "max" : [96.17990112304688, 163.97000122070312, 53.925201416015625], "min" : [-69.29850006103516, 9.929369926452637, -61.32820129394531], "name" : "POSITION"}, {"bufferView" : 1, "byteOffset" : 12, "componentType" : 5126, "count" : 10616, "type" : "VEC3", "max" : [0.9996030330657959, 0.9995853900909424, 0.9984399080276489], "min" : [-0.9990886449813843, -1.0000041723251343, -0.9998368620872498], "name" : "NORMAL"}, {"bufferView" : 1, "byteOffset" : 24, "componentType" : 5126, "count" : 10616, "type" : "VEC2", "max" : [0.9833459854125977, -0.01996299996972084], "min" : [0.026409000158309937, -0.9800369739532471], "name" : "TEXCOORD_0"}], "asset" : {"generator" : "Aspose.3D 21.11", "version" : "2.0"}, "buffers" : [{"uri" : "data:application/octet-stream;base64,", "byteLength" : 429632}], "bufferViews" : [{"buffer" : 0, "byteOffset" : 0, "byteLength" : 25272, "target" : 34963}, {"buffer" : 0, "byteOffset" : 25276, "byteLength" : 404352, "byteStride" : 32, "target" : 34962}], "cameras" : [{"perspective" : {"aspectRatio" : 1.5, "yfov" : 0.6605931592458378, "zfar" : 10000, "znear" : 1}, "type" : "perspective", "name" : "cameraShape1"}], "images" : [{"uri" : "DuckCM.png"}], "materials" : [{"name" : "", "pbrMetallicRoughness" : {"baseColorFactor" : [0.8, 0.8, 0.8, 1], "baseColorTexture" : {"index" : 0, "texCoord" : 0}, "metallicFactor" : 0, "roughnessFactor" : 0}, "emissiveFactor" : [0, 0, 0], "alphaMode" : "OPAQUE", "doubleSided" : false}], "meshes" : [{"primitives" : [{"attributes" : {"POSITION" : 1, "NORMAL" : 2, "TEXCOORD_0" : 3}, "indices" : 0, "material" : 0, "mode" : 4}], "name" : ""}], "nodes" : [{"mesh" : 0, "name" : "LOD3sp"}, {"camera" : 0, "matrix" : [-0.7289686274214113, 0, -0.6845471059286886, 0, -0.4252049153435464, 0.7836934573258398, 0.45279724481533634, 0, 0.5364750881476519, 0.6211477802783104, -0.5712879439059578, 0, 400.113, 463.264, -431.078, 1], "name" : "camera1"}], "samplers" : [{"magFilter" : 9729, "minFilter" : 9987, "wrapS" : 10497, "wrapT" : 10497}], "scene" : 0, "scenes" : [{"nodes" : [0, 1]}], "textures" : [{"sampler" : 0, "source" : 0}]}